<svg xmlns="http://www.w3.org/2000/svg" viewBox="0 0 200 200" fill="none">
  <!-- White background for icon -->
  <rect width="200" height="200" fill="white"/>

  <!-- Document base -->
  <rect x="40" y="30" width="120" height="140" rx="8" fill="white" stroke="#000000" stroke-width="4"/>

  <!-- Paper fold -->
  <path d="M 140 30 L 160 30 L 160 50 Z" fill="#F3F4F6" stroke="#000000" stroke-width="3"/>
  <line x1="140" y1="30" x2="160" y2="50" stroke="#D1D5DB" stroke-width="2"/>

  <!-- Paper lines -->
  <line x1="55" y1="60" x2="145" y2="60" stroke="#E5E7EB" stroke-width="3"/>
  <line x1="55" y1="85" x2="145" y2="85" stroke="#E5E7EB" stroke-width="3"/>
  <line x1="55" y1="110" x2="145" y2="110" stroke="#E5E7EB" stroke-width="3"/>
  <line x1="55" y1="135" x2="125" y2="135" stroke="#E5E7EB" stroke-width="3"/>

  <!-- AI Neural Network -->
  <!-- Nodes -->
  <circle cx="75" cy="80" r="8" fill="#000000"/>
  <circle cx="125" cy="80" r="8" fill="#000000"/>
  <circle cx="75" cy="125" r="8" fill="#000000"/>
  <circle cx="125" cy="125" r="8" fill="#000000"/>
  <circle cx="100" cy="102.5" r="10" fill="#000000"/>

  <!-- Connections -->
  <line x1="75" y1="80" x2="100" y2="102.5" stroke="#000000" stroke-width="3" opacity="0.5"/>
  <line x1="125" y1="80" x2="100" y2="102.5" stroke="#000000" stroke-width="3" opacity="0.5"/>
  <line x1="75" y1="125" x2="100" y2="102.5" stroke="#000000" stroke-width="3" opacity="0.5"/>
  <line x1="125" y1="125" x2="100" y2="102.5" stroke="#000000" stroke-width="3" opacity="0.5"/>

  <!-- Sparkle accent -->
  <path d="M 135 55 L 140 60 L 145 55 L 140 50 Z" fill="#000000"/>
  <path d="M 140 52 L 140 63" stroke="#000000" stroke-width="2"/>
  <path d="M 135 57.5 L 145 57.5" stroke="#000000" stroke-width="2"/>
</svg>
